<svg width="20" height="20" viewBox="0 0 20 20" fill="none" xmlns="http://www.w3.org/2000/svg">
<path d="M9.84679 9.35375C12.1536 9.35375 14.0237 7.4837 14.0237 5.17687C14.0237 2.87005 12.1536 1 9.84679 1C7.53997 1 5.66992 2.87005 5.66992 5.17687C5.66992 7.4837 7.53997 9.35375 9.84679 9.35375Z" stroke="#6B7280" stroke-width="1.5" stroke-miterlimit="10"/>
<path d="M17.3978 19.0003H2.49751C1.48022 19.0003 0.762135 18.0069 1.07331 17.0375L1.87517 14.5721C2.43767 12.8487 4.05336 11.6758 5.86055 11.6758H14.0108C15.83 11.6758 17.4337 12.8367 17.9962 14.5721L18.7981 17.0375C19.1092 18.0069 18.3911 19.0003 17.3739 19.0003H17.3978Z" stroke="#6B7280" stroke-width="1.5" stroke-miterlimit="10"/>
</svg>
