<svg width="25" height="25" viewBox="0 0 25 25" fill="none" xmlns="http://www.w3.org/2000/svg">
<g clip-path="url(#clip0_1580_10184)">
<path d="M12.7534 12.8984L7.05342 8.62344C6.96027 8.55358 6.88467 8.46299 6.8326 8.35885C6.78053 8.25471 6.75342 8.13987 6.75342 8.02344V4.64844C6.75342 4.44953 6.83244 4.25876 6.97309 4.11811C7.11374 3.97746 7.30451 3.89844 7.50342 3.89844H18.0034C18.2023 3.89844 18.3931 3.97746 18.5337 4.11811C18.6744 4.25876 18.7534 4.44953 18.7534 4.64844V7.98969C18.7531 8.10533 18.726 8.21932 18.6742 8.32276C18.6225 8.42619 18.5476 8.51626 18.4553 8.58594L12.7534 12.8984Z" stroke="#EA580C" stroke-width="1.5" stroke-linecap="round" stroke-linejoin="round"/>
<path d="M12.7534 12.8984L7.05342 17.1734C6.96027 17.2433 6.88467 17.3339 6.8326 17.438C6.78053 17.5422 6.75342 17.657 6.75342 17.7734V21.1484C6.75342 21.3473 6.83244 21.5381 6.97309 21.6788C7.11374 21.8194 7.30451 21.8984 7.50342 21.8984H18.0034C18.2023 21.8984 18.3931 21.8194 18.5337 21.6788C18.6744 21.5381 18.7534 21.3473 18.7534 21.1484V17.8072C18.7533 17.6912 18.7264 17.5769 18.6747 17.4731C18.6229 17.3693 18.5478 17.2789 18.4553 17.2091L12.7534 12.8984Z" stroke="#EA580C" stroke-width="1.5" stroke-linecap="round" stroke-linejoin="round"/>
<path d="M6.75342 6.89844H18.7534" stroke="#EA580C" stroke-width="1.5" stroke-linecap="round" stroke-linejoin="round"/>
</g>
<defs>
<clipPath id="clip0_1580_10184">
<rect width="24" height="24" fill="white" transform="translate(0.753418 0.898438)"/>
</clipPath>
</defs>
</svg>
